Coordinates
version=1
nRows=16
nColumns=40
inDegrees=yes

Units are S.I. units (second, meters, Newtons, ...)
Angles are in degrees.

endheader
time	pelvis_tilt	pelvis_list	pelvis_rotation	pelvis_tx	pelvis_ty	pelvis_tz	hip_flexion_r	hip_adduction_r	hip_rotation_r	knee_angle_r	knee_angle_r_beta	ankle_angle_r	subtalar_angle_r	mtp_angle_r	hip_flexion_l	hip_adduction_l	hip_rotation_l	knee_angle_l	knee_angle_l_beta	ankle_angle_l	subtalar_angle_l	mtp_angle_l	lumbar_extension	lumbar_bending	lumbar_rotation	arm_flex_r	arm_add_r	arm_rot_r	elbow_flex_r	pro_sup_r	wrist_flex_r	wrist_dev_r	arm_flex_l	arm_add_l	arm_rot_l	elbow_flex_l	pro_sup_l	wrist_flex_l	wrist_dev_l
      2.24000000	      0.63820827	     -5.86382181	      3.58608972	      0.70148319	      0.89375843	     -1.00510685	     14.12300022	      6.27382644	    -22.14929899	    -19.70972742	     -0.34399964	      1.97387076	      3.66417706	     -2.70211442	     -0.25823821	     10.71302751	      9.42356089	    -46.78516228	     -0.81655512	    -13.62122889	     -2.75511203	     -6.68632561	     -4.70660584	      8.24008319	     -2.60057423	      4.57467019	    -10.63241174	     18.62284503	     14.00417997	     89.95437384	      0.00000000	      0.00000000	      6.71384353	      6.48246315	     -8.89134575	     14.67009773	     89.95437384	      0.00000000	      0.00000000
      2.25000000	      1.10418458	     -6.09970941	      3.71118715	      0.70906123	      0.89417078	     -1.00416483	     13.09811139	      6.67279290	    -22.23215420	    -19.77455548	     -0.34513110	      2.74055753	      3.87015182	     -2.83614308	      0.49645626	     11.40092249	      9.45531604	    -48.69204279	     -0.84983647	    -12.95555901	     -1.67465239	     -6.89610240	     -5.24787715	      8.49456492	     -2.52512630	      5.11126366	    -10.81194059	     18.72508469	     14.23862525	     89.95437384	      0.00000000	      0.00000000	      6.49612548	      6.37852607	     -9.37422286	     13.38464525	     89.95437384	      0.00000000	      0.00000000
      2.26000000	      1.38253697	     -6.35281881	      3.99228852	      0.71636703	      0.89436424	     -1.00362247	     12.20849833	      7.09698922	    -22.20494376	    -19.59534904	     -0.34200336	      3.30302951	      3.95551405	     -2.90949520	      1.61761366	     12.04868699	      9.33032569	    -50.59776007	     -0.88309751	    -12.02624163	      0.29434432	     -7.11495549	     -5.57247981	      8.77914332	     -2.56860622	      5.48488083	    -11.09852132	     18.99518397	     14.82582835	     89.95437384	      0.00000000	      0.00000000	      6.16181141	      6.34630623	    -10.16325306	     12.50793523	     89.95437384	      0.00000000	      0.00000000
      2.27000000	      1.60967617	     -6.58623345	      4.04201863	      0.72336455	      0.89459705	     -1.00269120	     11.40926955	      7.46184078	    -22.47581679	    -19.47214230	     -0.33985300	      3.62795303	      4.27366927	     -3.00954208	      2.72710239	     12.59446060	      9.26820193	    -52.27292538	     -0.91233466	    -11.03265895	      2.07113461	     -7.44173860	     -5.89882603	      9.01671268	     -2.39949030	      6.03356920	    -11.33788901	     19.43872046	     15.12478413	     89.95437384	      0.00000000	      0.00000000	      5.79259809	      6.35745338	    -11.15772143	     11.82376930	     89.95437384	      0.00000000	      0.00000000
      2.28000000	      2.01678864	     -6.69459761	      4.01488836	      0.73067012	      0.89516489	     -1.00179749	     10.42362452	      7.73660122	    -22.45047766	    -19.46929040	     -0.33980322	      4.17720365	      4.47521593	     -3.11359306	      3.47554028	     12.97729601	      9.26748041	    -53.54738219	     -0.93457813	    -10.34220155	      3.03776637	     -7.54769458	     -6.38158463	      9.12766553	     -2.18407670	      6.65837571	    -11.48816656	     19.69714850	     15.24115899	     89.95437384	      0.00000000	      0.00000000	      5.39348117	      6.34530583	    -11.65024376	     11.23212508	     89.95437384	      0.00000000	      0.00000000
      2.29000000	      2.35725864	     -6.67633806	      4.10011397	      0.73783604	      0.89573463	     -1.00125730	      9.49715986	      7.89671818	    -22.18169214	    -19.39537995	     -0.33851324	      4.70739716	      4.50574827	     -3.18375457	      4.31795188	     13.14872147	      9.16807161	    -54.66820154	     -0.95414011	     -8.98542296	      3.88301786	     -7.74877024	     -6.76535084	      9.11385815	     -2.07754402	      7.25282566	    -11.62340472	     19.92776140	     15.34659762	     89.95437384	      0.00000000	      0.00000000	      4.88464904	      6.38643388	    -12.39258164	     10.97705617	     89.95437384	      0.00000000	      0.00000000
      2.30000000	      2.61080360	     -6.40092563	      4.03152840	      0.74494620	      0.89633582	     -1.00066770	      8.73527820	      7.71750129	    -21.95254606	    -19.50321058	     -0.34039524	      4.96460482	      4.37228289	     -3.17883812	      5.16686015	     13.01253413	      9.24545688	    -55.50247473	     -0.96870093	     -8.31582913	      4.10374641	     -7.78137807	     -7.09942557	      8.79648613	     -1.84296588	      7.79960145	    -11.72460424	     19.97614922	     15.55684960	     89.95437384	      0.00000000	      0.00000000	      4.32768840	      6.44194485	    -12.69614393	     10.91421600	     89.95437384	      0.00000000	      0.00000000
      2.31000000	      2.84874765	     -6.32772498	      3.98746900	      0.75193101	      0.89695787	     -1.00002740	      7.87892457	      7.86549378	    -21.47704982	    -19.33080257	     -0.33738615	      5.49451861	      4.04807450	     -3.28295934	      6.00498765	     12.84704568	      8.93209532	    -56.10783222	     -0.97926641	     -6.60401791	      5.48355671	     -8.73526379	     -7.34417224	      8.71695964	     -1.56250081	      8.36075842	    -11.98331247	     20.96040543	     15.69244294	     89.95437384	      0.00000000	      0.00000000	      3.48702394	      7.04368834	    -16.87682784	     11.70043988	     89.95437384	      0.00000000	      0.00000000
      2.32000000	      2.98384813	     -6.13294436	      3.90581949	      0.75874931	      0.89752990	     -0.99934683	      7.23332681	      7.80274314	    -21.13423673	    -19.35743257	     -0.33785093	      5.95514054	      4.05202381	     -3.31891859	      6.93112415	     12.63209172	      8.78929508	    -56.51724426	     -0.98641200	     -5.34730524	      5.22140218	     -8.96829995	     -7.51870881	      8.47821967	     -1.38661658	      9.02721493	    -12.00096496	     20.92112349	     15.62963387	     89.95437384	      0.00000000	      0.00000000	      2.85419341	      7.16498075	    -17.18422980	     11.90904114	     89.95437384	      0.00000000	      0.00000000
      2.33000000	      3.07335086	     -5.90634245	      3.80113911	      0.76557670	      0.89808046	     -0.99858049	      6.61644409	      7.75939631	    -20.56255887	    -19.31822034	     -0.33716655	      6.32891100	      3.56158214	     -3.26764018	      7.85871477	     12.32880663	      8.62409476	    -56.68447721	     -0.98933076	     -4.21209378	      4.88305839	    -10.01993680	     -7.59749975	      8.20311709	     -1.09173256	      9.55993951	    -12.02868320	     20.74904483	     15.64753680	     89.95437384	      0.00000000	      0.00000000	      2.06021086	      7.75542058	    -20.27805815	     12.78092113	     89.95437384	      0.00000000	      0.00000000
      2.34000000	      3.09103758	     -5.61516055	      3.63298468	      0.77229596	      0.89864674	     -0.99789692	      6.07175631	      7.55474811	    -20.26004916	    -19.31677517	     -0.33714133	      6.62286650	      3.54769954	     -3.26406427	      8.85139215	     11.91668707	      8.55475682	    -56.68290406	     -0.98930331	     -3.17350781	      4.53205327	    -10.13986975	     -7.63850767	      7.84778581	     -0.84312952	     10.16048034	    -12.03048933	     20.67141696	     15.59681408	     89.95437384	      0.00000000	      0.00000000	      1.46301694	      7.85997445	    -20.36432062	     13.04717322	     89.95437384	      0.00000000	      0.00000000
      2.35000000	      3.09164181	     -5.33553832	      3.45003850	      0.77894439	      0.89918248	     -0.99730283	      5.55918136	      7.36157812	    -19.94888618	    -19.29806387	     -0.33681475	      6.98230627	      3.49111614	     -3.26380869	      9.80188185	     11.41299572	      8.37705428	    -56.44941149	     -0.98522809	     -2.03155781	      4.08612207	    -10.28095044	     -7.66625836	      7.52428754	     -0.59328643	     10.75032240	    -12.05197050	     20.52154719	     15.59677654	     89.95437384	      0.00000000	      0.00000000	      0.82870519	      8.01675067	    -20.57007498	     13.46561821	     89.95437384	      0.00000000	      0.00000000
      2.36000000	      3.16945497	     -5.05281066	      3.25791244	      0.78541331	      0.89979922	     -0.99671056	      4.98448579	      7.18145976	    -19.44802672	    -19.31536982	     -0.33711680	      7.33763007	      3.49187028	     -3.27622204	     10.64227462	     10.85704939	      8.14025560	    -56.03724575	     -0.97803444	     -0.70657451	      3.55352607	    -10.53346141	     -7.80623180	      7.20102067	     -0.38059354	     11.39674266	    -12.02574379	     20.20828790	     15.59550926	     89.95437384	      0.00000000	      0.00000000	      0.15342991	      8.30189577	    -21.08847107	     14.16415482	     89.95437384	      0.00000000	      0.00000000
      2.37000000	      3.36185616	     -4.75853713	      3.06735741	      0.79216654	      0.90059970	     -0.99618246	      4.20293982	      7.00747216	    -18.99282786	    -19.19241969	     -0.33497091	      7.69082828	      3.33007719	     -3.26990336	     11.24827819	     10.31420670	      8.04934624	    -55.35239599	     -0.96608156	      0.39896219	      3.23899192	    -10.90980907	     -8.03040685	      6.87130533	     -0.10061409	     11.93848343	    -11.98815336	     19.57327562	     15.63204834	     89.95437384	      0.00000000	      0.00000000	     -0.48617429	      8.68341055	    -22.14547792	     14.93685210	     89.95437384	      0.00000000	      0.00000000
      2.38000000	      3.24338720	     -4.60182348	      2.87281388	      0.79867291	      0.90084457	     -0.99554726	      3.83354549	      6.88593338	    -18.87984620	    -19.18694924	     -0.33487544	      7.77513851	      3.26128560	     -3.23624698	     12.29224033	      9.95236910	      7.98024648	    -54.66407398	     -0.95406807	      0.88742706	      3.06203708	    -10.86269591	     -7.88457427	      6.66962442	      0.22176102	     12.33552491	    -12.08886623	     19.37428809	     15.87298887	     89.95437384	      0.00000000	      0.00000000	     -0.96592036	      8.76115828	    -22.26238139	     15.21165535	     89.95437384	      0.00000000	      0.00000000
      2.39000000	      3.16918783	     -4.47796257	      2.66842741	      0.80425702	      0.90101242	     -0.99486841	      3.62212127	      6.78513952	    -18.73227991	    -19.41451128	     -0.33884714	      7.71754981	      3.15731597	     -3.18375462	     13.45988883	      9.61447416	      7.86264067	    -54.08232332	     -0.94391461	      1.08689237	      2.92358795	    -10.67612219	     -7.99404598	      6.49156992	      0.49527023	     12.83884996	    -12.21402582	     19.20362568	     16.41235213	     89.95437384	      0.00000000	      0.00000000	     -1.33618055	      8.89047804	    -22.21509057	     15.58051308	     89.95437384	      0.00000000	      0.00000000
